<svg width="512" height="512" viewBox="0 0 512 512" fill="none" xmlns="http://www.w3.org/2000/svg">
<path d="M435.2 25.6H76.7996C48.6396 25.6 25.5996 48.64 25.5996 76.8V435.2C25.5996 463.36 48.6396 486.4 76.7996 486.4H435.2C463.36 486.4 486.4 463.36 486.4 435.2V76.8C486.4 48.64 463.36 25.6 435.2 25.6ZM465.92 435.2C465.92 452.096 452.096 465.92 435.2 465.92H76.7996C59.9036 465.92 46.0796 452.096 46.0796 435.2V76.8C46.0796 59.904 59.9036 46.08 76.7996 46.08H435.2C452.096 46.08 465.92 59.904 465.92 76.8V435.2ZM329.728 196.608L270.336 256L329.728 315.392C333.824 319.488 333.824 325.632 329.728 329.728C327.68 331.776 325.12 332.8 322.56 332.8C320 332.8 317.44 331.776 315.392 329.728L256 270.336L196.608 329.728C194.56 331.776 192 332.8 189.44 332.8C186.88 332.8 184.32 331.776 182.272 329.728C178.176 325.632 178.176 319.488 182.272 315.392L241.664 256L182.272 196.608C178.176 192.512 178.176 186.368 182.272 182.272C186.368 178.176 192.512 178.176 196.608 182.272L256 241.664L315.392 182.272C319.488 178.176 325.632 178.176 329.728 182.272C333.824 186.368 333.824 192.512 329.728 196.608Z" fill="white"/>
</svg>
