<svg width="14" height="14" viewBox="0 0 14 14" fill="none" xmlns="http://www.w3.org/2000/svg">
<path d="M0.724027 0.0530578C0.640327 0.0111952 0.546558 -0.00633676 0.453387 0.00245632C0.360216 0.0112494 0.271383 0.0460145 0.196993 0.102797C0.122602 0.15958 0.0656413 0.2361 0.0325888 0.323654C-0.000463657 0.411208 -0.00828063 0.506281 0.0100271 0.598058L1.41303 5.44806C1.43919 5.53844 1.49032 5.61961 1.56055 5.68223C1.63078 5.74485 1.71725 5.78638 1.81003 5.80206L7.50003 6.75506C7.76803 6.80806 7.76803 7.19206 7.50003 7.24506L1.81003 8.19806C1.71725 8.21373 1.63078 8.25527 1.56055 8.31789C1.49032 8.38051 1.43919 8.46168 1.41303 8.55206L0.0100271 13.4021C-0.00828063 13.4938 -0.000463657 13.5889 0.0325888 13.6765C0.0656413 13.764 0.122602 13.8405 0.196993 13.8973C0.271383 13.9541 0.360216 13.9889 0.453387 13.9977C0.546558 14.0065 0.640327 13.9889 0.724027 13.9471L13.724 7.44706C13.807 7.40549 13.8767 7.34166 13.9254 7.26272C13.9742 7.18378 14 7.09283 14 7.00006C14 6.90728 13.9742 6.81634 13.9254 6.7374C13.8767 6.65845 13.807 6.59463 13.724 6.55306L0.724027 0.0530578Z" fill="white"/>
</svg>
