<svg width="538" height="585" viewBox="0 0 538 585" fill="none" xmlns="http://www.w3.org/2000/svg">
<path fill-rule="evenodd" clip-rule="evenodd" d="M80.3072 1.2888L160.114 82.0156V430.033L0.5 274.064L0.500018 82.016L80.3072 1.2888ZM457.693 1.28885L537.5 82.016L537.5 274.064L377.886 430.033V82.0156L457.693 1.28885ZM348.805 105.418L348.805 454.806L269.34 533.041L189.532 454.806L189.532 105.422L269.339 184.514L348.805 105.418ZM0.720283 299.067L160.334 454.537V481.683L0.720283 326.213V299.067ZM537.043 299.067V326.213L377.429 481.683V454.537L537.043 299.067ZM189.074 479.313L268.882 557.049L349.184 479.318V506.46L268.88 583.695L189.074 506.459V479.313Z" stroke="white"/>
</svg>
